<svg width="39" height="39" viewBox="0 0 39 39" fill="none" xmlns="http://www.w3.org/2000/svg">
<path d="M9.25156 11.0036H28.8734C29.7144 11.0036 30.275 10.3629 30.275 9.40179C30.275 8.44071 29.7144 7.8 28.8734 7.8H9.25156C8.41063 7.8 7.85 8.44071 7.85 9.40179C7.85 10.3629 8.41063 11.0036 9.25156 11.0036ZM9.25156 20.6143H28.8734C29.7144 20.6143 30.275 19.9736 30.275 19.0125C30.275 18.0514 29.7144 17.4107 28.8734 17.4107H9.25156C8.41063 17.4107 7.85 18.0514 7.85 19.0125C7.85 19.9736 8.41063 20.6143 9.25156 20.6143ZM9.25156 30.225H28.8734C29.7144 30.225 30.275 29.5843 30.275 28.6232C30.275 27.6621 29.7144 27.0214 28.8734 27.0214H9.25156C8.41063 27.0214 7.85 27.6621 7.85 28.6232C7.85 29.5843 8.41063 30.225 9.25156 30.225Z" fill="black"/>
</svg>
